<?xml version="1.0" encoding="UTF-8"?>
<svg version="1.1" xmlns="http://www.w3.org/2000/svg" width="500" height="500">
<path d="M0 0 C165 0 330 0 500 0 C500 165 500 330 500 500 C335 500 170 500 0 500 C0 335 0 170 0 0 Z " fill="#FEFEFE" transform="translate(0,0)"/>
<path d="M0 0 C6.93612209 5.99840602 11.32255066 12.68884385 12 21.9375 C11.82091313 29.3584122 8.41598112 35.83111077 3.70703125 41.453125 C-2.79119335 47.61638957 -10.7278539 50.62577649 -19.27099609 52.87744141 C-46.8318907 60.21379465 -71.89828132 78.62973675 -86.37841797 103.30029297 C-91.38151731 112.2762496 -95.40980679 121.51765311 -98.5 131.3125 C-97.76700684 131.28220703 -97.03401367 131.25191406 -96.27880859 131.22070312 C-88.93262586 130.92277651 -81.5859513 130.6619757 -74.23730469 130.43261719 C-71.89395736 130.35730187 -69.55079681 130.27561314 -67.20800781 130.18457031 C-43.60388215 129.29856367 -43.60388215 129.29856367 -34.3359375 137.14453125 C-28.18414971 143.56213703 -26.35895971 149.53433155 -26.125 158.3125 C-26.33951405 167.04228918 -28.15660441 172.96910441 -34.5 179.3125 C-42.40627501 185.52457322 -52.68067523 188.43241973 -62.66796875 188.4453125 C-63.64443359 188.44660156 -64.62089844 188.44789063 -65.62695312 188.44921875 C-66.63693359 188.44535156 -67.64691406 188.44148437 -68.6875 188.4375 C-69.67814453 188.44136719 -70.66878906 188.44523438 -71.68945312 188.44921875 C-78.0186044 188.44091822 -84.21671047 188.0724846 -90.5 187.3125 C-78.36094939 201.69705265 -63.5128741 213.71835972 -43.95703125 215.55078125 C-36.38024572 215.76342368 -29.41620321 214.81479555 -23.578125 209.59375 C-17.93698079 203.25417842 -17.81237178 196.758431 -18.24707031 188.54931641 C-18.78325398 183.80750682 -20.23496129 179.26447115 -21.72119141 174.74389648 C-23.6966298 168.56625146 -24.52663268 162.77088013 -22.65234375 156.45703125 C-19.16030619 149.75366655 -15.48669516 145.17861263 -8.5625 141.9375 C-0.59825565 140.31214401 6.51556872 141.25119575 13.484375 145.53125 C18.28709238 149.22564798 21.10244608 153.4098899 22.5 159.3125 C24.10622987 173.58673152 20.72313663 185.30857395 11.76953125 196.75390625 C-1.01015572 211.16129861 -19.99198111 219.10374723 -39.04736328 220.49902344 C-65.48738586 221.69477852 -87.65819409 213.98255051 -107.5859375 196.48046875 C-110.67206021 193.5834168 -113.15004388 190.91329613 -115.29296875 187.234375 C-120.88782734 177.63042613 -126.98904894 174.64932049 -137.15234375 170.55078125 C-162.7111785 160.20741854 -191.03743959 139.0292407 -202.5 113.3125 C-205.34529264 103.44443305 -204.67143822 91.31480917 -200.19140625 82.125 C-197.02853657 76.86572477 -193.36465725 72.07063764 -189.5 67.3125 C-189.03464844 66.70535156 -188.56929687 66.09820312 -188.08984375 65.47265625 C-185.30680744 61.91603019 -182.05870554 59.04616399 -178.62890625 56.140625 C-177.27345738 54.97667991 -175.94402282 53.7812068 -174.65234375 52.546875 C-141.87889651 21.53263865 -44.5361956 -30.78113707 0 0 Z " fill="#023CB7" transform="translate(340.5,142.6875)"/>
<path d="M0 0 C-2.78124289 1.85416193 -5.55593209 3.19609652 -8.59643555 4.56176758 C-28.76451829 13.66928891 -47.32358858 27.21441919 -62.32983398 43.53369141 C-69.04328265 50.67617895 -75.79036438 55.12002206 -84.6875 59.375 C-85.95866575 60.00444347 -87.22850407 60.63657407 -88.49707031 61.27124023 C-90.43270605 62.23933304 -92.36890148 63.20594813 -94.30923462 64.16459656 C-100.69931502 67.32245155 -106.9838105 70.6658184 -113.25 74.0625 C-114.20608154 74.57409668 -115.16216309 75.08569336 -116.1472168 75.61279297 C-134.79072849 85.57207739 -134.79072849 85.57207739 -147 102 C-148.32224394 108.9653922 -146.73669495 113.90155455 -142.79296875 119.6953125 C-131.40776148 134.32989266 -109.95184921 140.75156149 -92.21875 143.609375 C-77.42466286 145.24452047 -62.56629375 144.2898851 -47.97265625 141.68359375 C-37.6403002 139.84259095 -29.04874075 141.13910165 -20.0625 146.875 C-14.31669639 152.79491888 -12.48258259 158.20659944 -12.6015625 166.2734375 C-13.57737907 172.95108424 -17.62522449 178.35658046 -22.875 182.4375 C-40.34717919 192.66582381 -67.47921949 189.19294436 -86.19482422 184.76611328 C-106.99698987 179.0848952 -127.66804479 166.94565077 -144 153 C-144.50821289 152.56864746 -145.01642578 152.13729492 -145.54003906 151.69287109 C-156.78706813 142.06009667 -169.7770668 129.97869982 -173 115 C-174.23377958 97.37457743 -170.24407095 86.84361763 -159 73 C-158.53464844 72.39285156 -158.06929687 71.78570312 -157.58984375 71.16015625 C-154.80680744 67.60353019 -151.55870554 64.73366399 -148.12890625 61.828125 C-146.77345738 60.66417991 -145.44402282 59.4687068 -144.15234375 58.234375 C-110.95508806 26.81907936 -60.30393501 5.96207606 -15.3125 0.875 C-14.60544922 0.78863281 -13.89839844 0.70226562 -13.16992188 0.61328125 C-8.74862429 0.09984024 -4.45059707 -0.08166233 0 0 Z " fill="#0367FD" transform="translate(310,137)"/>
<path d="M0 0 C6.48241206 -0.27282879 10.8852712 0.96014118 16.1328125 4.96484375 C18.21601153 7.76915013 18.61579773 9.67298196 18.7578125 13.15234375 C17.41633098 18.65241799 13.55247014 21.92974905 8.98828125 25.0390625 C7.98410156 25.63332031 6.97992188 26.22757813 5.9453125 26.83984375 C4.79276179 27.53481313 3.64042805 28.23014245 2.48828125 28.92578125 C0.59484925 30.05770786 -1.30020936 31.1868119 -3.19677734 32.31347656 C-13.01586648 38.17368203 -21.69298238 44.56987436 -30.2421875 52.15234375 C-31.2942912 53.02525902 -32.34896895 53.89508155 -33.40625 54.76171875 C-51.89440506 70.34677508 -62.85131853 94.39741119 -69.2421875 117.15234375 C-76.98420331 116.7665732 -83.91889975 115.72845603 -91.2421875 113.15234375 C-91.2421875 114.14234375 -91.2421875 115.13234375 -91.2421875 116.15234375 C-102.23431549 115.40288048 -113.04689514 109.79494544 -121.1796875 102.52734375 C-123.68047323 99.64765109 -124.16437969 97.71922922 -124.6796875 93.96484375 C-123.908503 87.24452165 -119.5678453 83.04855419 -114.5546875 78.77734375 C-103.85415333 70.90877675 -82.76577174 57.15234375 -69.2421875 57.15234375 C-69.00628906 56.46398437 -68.77039063 55.775625 -68.52734375 55.06640625 C-66.98329388 51.56530838 -64.92299585 48.60212074 -62.6796875 45.52734375 C-62.23496094 44.91270264 -61.79023438 44.29806152 -61.33203125 43.66479492 C-47.40635423 24.58869438 -32.04398571 6.37249262 -8.0234375 0.62109375 C-5.3587473 0.24042372 -2.68360841 0.18233576 0 0 Z " fill="#0166FD" transform="translate(304.2421875,151.84765625)"/>
<path d="M0 0 C2.5 1.5 2.5 1.5 4 4 C4.39276267 8.55604698 3.8712334 10.72018818 1.30078125 14.49609375 C-7.49105318 24.86635447 -19.39002582 30.37629631 -31.3913269 36.22244263 C-69.21479264 53.66185363 -69.21479264 53.66185363 -96 84 C-97.24457702 95.75207152 -93.34673108 103.97048019 -86.30859375 113.15234375 C-65.91006783 138.31397725 -37.45441299 152.63240118 -8 165 C-8 165.33 -8 165.66 -8 166 C-15.16450613 165.46192495 -21.45673902 163.86480234 -28.25 161.5625 C-29.81403564 161.03450806 -29.81403564 161.03450806 -31.40966797 160.49584961 C-61.815623 149.92216838 -94.50152275 131.27591224 -110.0859375 101.95703125 C-113.31606137 94.7707465 -113.15428251 86.33761654 -110.5 79 C-103.21514182 63.11496202 -90.79569624 49.45244952 -77 39 C-76.07445312 38.236875 -75.14890625 37.47375 -74.1953125 36.6875 C-57.95311654 23.52499314 -21.68839341 -3.47014295 0 0 Z " fill="#3B8AFF" transform="translate(251,155)"/>
<path d="M0 0 C4.80271738 3.69439798 7.61807108 7.8786399 9.015625 13.78125 C10.62185487 28.05548152 7.23876163 39.77732395 -1.71484375 51.22265625 C-14.49453072 65.63004861 -33.47635611 73.57249723 -52.53173828 74.96777344 C-78.89202378 76.1599224 -101.55649797 68.52352925 -121.24609375 50.73828125 C-125.42271833 46.74694131 -128.40016114 42.94967773 -130.984375 37.78125 C-128.60516518 38.49501295 -126.22686151 39.21077962 -123.8515625 39.9375 C-122.01410117 40.47822431 -120.16508242 40.98189308 -118.3046875 41.4375 C-112.20347195 42.99525716 -108.97174137 44.84950738 -104.984375 49.78125 C-104.984375 50.44125 -104.984375 51.10125 -104.984375 51.78125 C-104.43394531 52.02359375 -103.88351563 52.2659375 -103.31640625 52.515625 C-100.47564809 54.057343 -98.17961598 55.99175941 -95.671875 58.03125 C-81.61849371 68.74846574 -66.28159872 71.01849397 -48.984375 69.78125 C-42.33869708 68.51176492 -38.20133874 65.75410189 -34.04296875 60.46484375 C-30.28371764 54.48610858 -31.04235247 45.19314841 -32.47949219 38.46240234 C-33.30139473 35.34833361 -34.19963467 32.27232713 -35.20556641 29.21264648 C-37.1810048 23.03500146 -38.01100768 17.23963013 -36.13671875 10.92578125 C-32.64468119 4.22241655 -28.97107016 -0.35263737 -22.046875 -3.59375 C-14.08263065 -5.21910599 -6.96880628 -4.28005425 0 0 Z " fill="#053FB8" transform="translate(353.984375,288.21875)"/>
<path d="M0 0 C3.43583099 2.63680052 3.88184298 4.18767047 4.5 8.4375 C3.88999586 12.7837795 2.88069127 14.68720504 0 18 C-4.85613215 21.54164119 -10.2548724 24.20811506 -15.61279297 26.89355469 C-24.67481981 31.4466946 -32.60459472 35.98384628 -40 43 C-40.60070312 43.52335937 -41.20140625 44.04671875 -41.8203125 44.5859375 C-56.22153219 57.78147368 -65.98136313 76.69183657 -72.17456055 94.90673828 C-74.00002385 100.10642327 -75.59317529 103.58347298 -80 107 C-82.6875 107 -82.6875 107 -85 106 C-88.31960141 101.02059789 -87.57054679 95.93016529 -86.453125 90.19140625 C-80.60279544 68.97016366 -68.47444286 48.43918682 -54 32 C-53.20851562 31.07574219 -52.41703125 30.15148437 -51.6015625 29.19921875 C-42.41231131 18.71999381 -32.11903716 10.84787431 -20 4 C-19.195625 3.54238281 -18.39125 3.08476562 -17.5625 2.61328125 C-11.91488574 -0.26095101 -6.27730258 -1.16549266 0 0 Z " fill="#70A9FF" transform="translate(306,157)"/>
<path d="M0 0 C2.4375 2.5625 2.4375 2.5625 4 5 C4.4125 5.598125 4.825 6.19625 5.25 6.8125 C6.90210621 11.63114311 6.33185409 15.86779192 4.9375 20.625 C1.45031941 26.69944361 -3.45434975 30.66638609 -10.23828125 32.58984375 C-32.66066772 35.91990115 -55.95206442 23.10333111 -73.4140625 10.21875 C-77.93949959 6.57281482 -79.16907194 4.86166633 -80 -1 C-78.43040527 -1.07516846 -78.43040527 -1.07516846 -76.82910156 -1.15185547 C-71.96907917 -1.38656418 -67.10945889 -1.6289132 -62.25 -1.875 C-61.37820099 -1.91913025 -60.50640198 -1.9632605 -59.60818481 -2.00872803 C-49.86031291 -2.50851485 -40.14146618 -3.04172515 -30.4375 -4.125 C-8.23146577 -6.52103133 -8.23146577 -6.52103133 0 0 Z " fill="#3A89FF" transform="translate(287,287)"/>
<path d="M0 0 C4.33476655 3.31176164 7.51451666 7.13010187 8.953125 12.4921875 C9.66833565 18.69067984 8.13076098 23.26494329 4.953125 28.4921875 C-0.5507951 34.56311138 -7.4686993 38.12390956 -14.671875 41.8046875 C-38.08583323 54.13465645 -38.08583323 54.13465645 -54.015625 74.59765625 C-55.23286313 76.83387025 -56.6482826 78.11229469 -58.546875 79.8046875 C-70.25985304 91.30547391 -78.92728813 107.67297391 -83.046875 123.4921875 C-83.376875 122.8321875 -83.706875 122.1721875 -84.046875 121.4921875 C-86.356875 121.4921875 -88.666875 121.4921875 -91.046875 121.4921875 C-89.4710434 101.40033456 -77.01035414 81.28746261 -64.046875 66.4921875 C-63.4384375 65.76257813 -62.83 65.03296875 -62.203125 64.28125 C-58.19060244 59.52093915 -53.86592533 55.42693398 -49.046875 51.4921875 C-48.15742188 50.75355469 -47.26796875 50.01492187 -46.3515625 49.25390625 C-38.99513186 43.35559166 -31.26158449 38.43394849 -23.11425781 33.69067383 C-19.31082794 31.47451692 -15.6192627 29.24570152 -12.0703125 26.63671875 C-9.046875 24.4921875 -9.046875 24.4921875 -7.046875 24.4921875 C-4.71447113 20.76034132 -4.1362771 16.82818934 -4.046875 12.4921875 C-4.88316295 9.39792208 -5.79507979 8.67109462 -8.421875 6.8046875 C-16.49630079 2.7674746 -26.64816661 3.91589658 -35.046875 6.4921875 C-38.6655284 8.08146691 -42.17156779 9.87858773 -45.65258789 11.74804688 C-50.77771108 14.4921875 -50.77771108 14.4921875 -54.046875 14.4921875 C-39.26405584 1.88247135 -19.52945437 -11.75752865 0 0 Z " fill="#0050D9" transform="translate(326.046875,148.5078125)"/>
<path d="M0 0 C-1.43125548 4.74651053 -3.45757327 9.00115585 -5.75 13.375 C-13.0551473 27.73653817 -17.3718012 42.33131848 -21 58 C-27.21732085 56.86941384 -32.56651289 55.12355829 -38.1875 52.25 C-39.19586914 51.76660156 -39.19586914 51.76660156 -40.22460938 51.2734375 C-45.742427 48.50109681 -50.96795508 45.09613477 -53 39 C-53.62699539 34.43189076 -53.17231846 31.71286327 -50.5625 28 C-41.00028901 16.55166482 -15.51956473 0 0 0 Z " fill="#FCFDFE" transform="translate(233,210)"/>
<path d="M0 0 C1 1 1 1 1 4.1875 C-0.55507103 10.11620829 -4.76925579 12.66451907 -9.828125 15.69311523 C-13.19416945 17.55257498 -16.58986957 19.3484218 -20 21.125 C-21.2451556 21.78309367 -22.48986027 22.44204118 -23.73413086 23.10180664 C-29.65523957 26.23413573 -35.60132307 29.31547517 -41.56640625 32.36328125 C-55.9456464 39.63501687 -55.9456464 39.63501687 -69 49 C-69.8765625 49.72832031 -70.753125 50.45664063 -71.65625 51.20703125 C-79.48878757 57.96835413 -87.06841842 65.46265814 -88.38671875 76.12890625 C-89.0575074 89.70864986 -82.92404008 98.41318659 -74.6081543 108.45703125 C-71 112.81649468 -71 112.81649468 -71 115 C-82.23620358 111.14308949 -87.95201946 100.01869607 -93 90 C-95.35041288 82.94876137 -95.23335438 72.67099093 -92.01171875 65.86328125 C-91.51091797 64.94095703 -91.51091797 64.94095703 -91 64 C-90.65582031 63.27167969 -90.31164062 62.54335937 -89.95703125 61.79296875 C-78.93741591 40.80483984 -54.6042616 26.82781895 -35 15 C-34.04174316 14.42088867 -33.08348633 13.84177734 -32.09619141 13.24511719 C-29.11059825 11.44689341 -26.11957506 9.65822227 -23.125 7.875 C-22.19147705 7.318125 -21.2579541 6.76125 -20.29614258 6.1875 C-19.41724365 5.66929687 -18.53834473 5.15109375 -17.6328125 4.6171875 C-16.85824707 4.15940918 -16.08368164 3.70163086 -15.28564453 3.22998047 C-9.87009479 0.3156951 -6.06641402 -0.3033207 0 0 Z " fill="#C1DAFF" transform="translate(237,166)"/>
<path d="M0 0 C4.70380731 4.5969026 6.68713761 8.79134155 7.3359375 15.4453125 C7.49903432 30.80903305 3.44850063 40.17320829 -7.09375 51.1875 C-9.22352945 53.21253619 -11.48525943 54.49115566 -14 56 C-14.639375 56.70125 -15.27875 57.4025 -15.9375 58.125 C-18.54682655 60.49711504 -20.54621412 60.68601947 -24 61 C-24 61.66 -24 62.32 -24 63 C-23.34 63.33 -22.68 63.66 -22 64 C-44.26339616 68.53245036 -68.04432248 63.22567728 -87 51 C-95.79060906 44.69283655 -104.1068325 37.786335 -109 28 C-106.62079018 28.71376295 -104.24248651 29.42952962 -101.8671875 30.15625 C-100.02972617 30.69697431 -98.18070742 31.20064308 -96.3203125 31.65625 C-90.21909695 33.21400716 -86.98736637 35.06825738 -83 40 C-83 40.66 -83 41.32 -83 42 C-82.44957031 42.24234375 -81.89914063 42.4846875 -81.33203125 42.734375 C-78.49127309 44.276093 -76.19524098 46.21050941 -73.6875 48.25 C-59.63411871 58.96721574 -44.29722372 61.23724397 -27 60 C-20.28690049 58.71763577 -16.22482988 56.02386732 -12.25390625 50.48828125 C-11 49 -11 49 -8 48 C-4.62107153 42.02082616 -3.91488512 34.67051238 -5 28 C-6.16775635 24.74720623 -7.39224059 21.60143711 -8.86499023 18.47802734 C-11.06704674 13.652981 -11.38122492 10.195551 -11 5 C-8.32240068 -0.72032581 -6.11546294 -1.79866557 0 0 Z " fill="#0768FB" transform="translate(332,298)"/>
<path d="M0 0 C3.43583099 2.63680052 3.88184298 4.18767047 4.5 8.4375 C3.88999586 12.7837795 2.88069127 14.68720504 0 18 C-4.85613215 21.54164119 -10.2548724 24.20811506 -15.61279297 26.89355469 C-24.67481981 31.4466946 -32.60459472 35.98384628 -40 43 C-40.60070312 43.52335937 -41.20140625 44.04671875 -41.8203125 44.5859375 C-56.22153219 57.78147368 -65.98136313 76.69183657 -72.17456055 94.90673828 C-74.00002385 100.10642327 -75.59317529 103.58347298 -80 107 C-82.6875 107 -82.6875 107 -85 106 C-88.31960141 101.02059789 -87.57054679 95.93016529 -86.453125 90.19140625 C-80.60279544 68.97016366 -68.47444286 48.43918682 -54 32 C-53.20851562 31.07574219 -52.41703125 30.15148437 -51.6015625 29.19921875 C-42.41231131 18.71999381 -32.11903716 10.84787431 -20 4 C-19.195625 3.54238281 -18.39125 3.08476562 -17.5625 2.61328125 C-11.91488574 -0.26095101 -6.27730258 -1.16549266 0 0 Z M-18.0625 6.375 C-18.80983398 6.73440674 -19.55716797 7.09381348 -20.32714844 7.46411133 C-51.24686611 22.90085632 -70.659898 54.92988459 -83 86 C-84.42714015 90.29484183 -85.24886228 93.91652678 -85.125 98.4375 C-85.10695312 99.30246094 -85.08890625 100.16742188 -85.0703125 101.05859375 C-85.04710937 101.69925781 -85.02390625 102.33992188 -85 103 C-83.04953213 102.78548028 -83.04953213 102.78548028 -81 102 C-79.8142633 100.37408812 -79.8142633 100.37408812 -79.0625 98.25 C-78.72863281 97.43273437 -78.39476562 96.61546875 -78.05078125 95.7734375 C-77.32823232 93.8663381 -76.61795823 91.95455717 -75.91796875 90.0390625 C-71.04272252 76.8318737 -64.71671107 65.08196664 -56 54 C-55.28972656 53.07445312 -54.57945312 52.14890625 -53.84765625 51.1953125 C-42.18958512 36.40247004 -28.113502 27.59759565 -11.27880859 19.73803711 C-7.54824858 17.95834222 -4.54881786 16.29884407 -2 13 C-1.36257451 10.13698722 -1.71139532 7.98224836 -2 5 C-3.84384588 2.74850262 -3.84384588 2.74850262 -6.62109375 2.6640625 C-10.93409577 3.09286964 -14.18835497 4.5016759 -18.0625 6.375 Z " fill="#3A89FF" transform="translate(306,157)"/>
<path d="M0 0 C5.73954352 2.84459832 8.74515858 7.76682591 10.75390625 13.703125 C13.19954854 23.77722766 12.03603481 34.30776606 6.96875 43.3828125 C4.86931528 46.318824 2.54204026 48.85698047 -0.03125 51.3828125 C-0.6396875 51.98996094 -1.248125 52.59710938 -1.875 53.22265625 C-6.91816251 57.94545393 -12.64057293 61.71465103 -19.03125 64.3828125 C-19.69125 64.0528125 -20.35125 63.7228125 -21.03125 63.3828125 C-19.03314378 61.23669841 -17.31108832 59.53407646 -14.71875 58.1328125 C-5.94131208 52.41727153 -1.46143242 43.26970851 0.96875 33.3828125 C1.62579354 25.33616243 1.90871994 17.58344722 -2.03125 10.3828125 C-4.17679685 7.71453373 -4.17679685 7.71453373 -7.03125 6.3828125 C-10.21569653 6.20483861 -10.21569653 6.20483861 -13.03125 7.3828125 C-15.53789755 10.23127563 -15.2698442 13.56195849 -15.24072266 17.23168945 C-14.90563828 20.67274826 -13.48568626 23.60946029 -12.03125 26.6953125 C-8.25400294 35.46197343 -7.54325471 42.11193611 -11.03125 51.0703125 C-11.67897418 52.51644669 -12.33873226 53.95758625 -13.03125 55.3828125 C-13.69125 55.3828125 -14.35125 55.3828125 -15.03125 55.3828125 C-14.97324219 54.29226563 -14.91523438 53.20171875 -14.85546875 52.078125 C-14.51911551 42.68440971 -15.26090709 34.61059697 -18.25268555 25.66259766 C-20.45704476 18.91513662 -21.39887088 12.0762523 -18.28125 5.4453125 C-17.95640625 4.71441406 -17.6315625 3.98351562 -17.296875 3.23046875 C-13.58292981 -2.19143272 -5.71054353 -1.73512669 0 0 Z " fill="#0368FE" transform="translate(337.03125,291.6171875)"/>
<path d="M0 0 C2.46996424 2.46996424 2.32331778 3.33897333 2.375 6.75 C2.25565232 11.62219372 1.39950504 14.33899458 -2 18 C-10.41029757 23.94455124 -19.29539047 23.95601663 -29.1875 22.3125 C-35.16879694 20.96188456 -42.22944663 18.0647367 -46 13 C-45.57397461 10.90063477 -45.57397461 10.90063477 -45 9 C-44.33468262 8.98018066 -43.66936523 8.96036133 -42.98388672 8.93994141 C-39.94721732 8.84423582 -36.91119322 8.73474192 -33.875 8.625 C-32.30492187 8.57859375 -32.30492187 8.57859375 -30.703125 8.53125 C-23.44679729 8.25569325 -17.74176241 7.86499922 -12.125 2.875 C-7.89967436 -0.45650676 -5.29201786 -0.7299335 0 0 Z " fill="#7EB2FF" transform="translate(286,293)"/>
<path d="M0 0 C0 0.66 0 1.32 0 2 C-0.77601563 2.07476562 -1.55203125 2.14953125 -2.3515625 2.2265625 C-21.93607118 4.61035711 -37.6885978 15.44563601 -51.66796875 28.80859375 C-54 31 -54 31 -56.609375 33.078125 C-60.23697297 35.99442925 -63.03274722 39.42740604 -66 43 C-66.4429541 43.53061035 -66.8859082 44.0612207 -67.34228516 44.60791016 C-72.46858141 50.7776574 -77.43533734 56.85644229 -81.48999023 63.79394531 C-85.1778031 70.09000643 -88.50553497 73.74668133 -95.51953125 76.3984375 C-98 77 -98 77 -102 77 C-100.43468427 71.95404433 -97.38238063 68.43147049 -94.0625 64.4375 C-93.48056885 63.73077148 -92.8986377 63.02404297 -92.29907227 62.29589844 C-87.07289339 55.99627652 -81.65426001 49.92081798 -76 44 C-75.53271484 43.5054834 -75.06542969 43.0109668 -74.58398438 42.50146484 C-66.98860356 34.49753682 -58.84808613 27.58151413 -50 21 C-49.15953125 20.36449219 -48.3190625 19.72898438 -47.453125 19.07421875 C-33.6779634 9.02019979 -17.49921419 -1.3962139 0 0 Z " fill="#0031A6" transform="translate(322,137)"/>
<path d="M0 0 C4.70380731 4.5969026 6.68713761 8.79134155 7.3359375 15.4453125 C7.47147166 28.21263048 5.20365406 37.13699569 -3 47.0390625 C-4.92883992 48.93022976 -6.52258436 49.97143012 -9 51 C-8.71125 50.26136719 -8.4225 49.52273438 -8.125 48.76171875 C-4.24054637 38.14690971 -3.48420834 30.81673751 -8 20.3125 C-8.28536621 19.70688232 -8.57073242 19.10126465 -8.86474609 18.47729492 C-11.06795741 13.65311203 -11.38118588 10.19501898 -11 5 C-8.32240068 -0.72032581 -6.11546294 -1.79866557 0 0 Z " fill="#3A89FF" transform="translate(332,298)"/>
<path d="M0 0 C8.30018054 3.51478818 12.99425461 7.29519852 16.984375 15.46484375 C20.61944773 24.53854454 19.6547622 34.02807079 16.31640625 43.01953125 C11.12775121 54.76713896 2.91758616 63.34293527 -8 70 C-9.485 70.99 -9.485 70.99 -11 72 C-12.77349558 72.59848613 -14.56851355 73.13502148 -16.375 73.625 C-17.77878906 74.01558594 -17.77878906 74.01558594 -19.2109375 74.4140625 C-21.90123635 74.97925133 -24.26144571 75.10954217 -27 75 C-27 74.34 -27 73.68 -27 73 C-26.40574219 72.78085937 -25.81148438 72.56171875 -25.19921875 72.3359375 C-13.80376165 67.97624474 -4.67492412 62.65923709 4 54 C4.53753906 53.4740625 5.07507813 52.948125 5.62890625 52.40625 C11.9961745 45.56381248 12.98827363 35.97067297 13 27 C12.45538211 20.13781454 10.53587979 14.26869602 6 9 C0.98184996 5.26556276 -4.02082804 5.72213831 -10 6 C-10.99 6 -11.98 6 -13 6 C-11.87720538 5.01830524 -10.75168527 4.03972702 -9.625 3.0625 C-8.68527344 2.24458984 -8.68527344 2.24458984 -7.7265625 1.41015625 C-4.76092128 -1.01200774 -3.58401328 -1.14186795 0 0 Z " fill="#0151DA" transform="translate(335,286)"/>
<path d="M0 0 C4.17338814 0.46370979 6.25330561 0.82796448 9 4 C10.00863143 5.38960906 11.00784431 6.78608009 12 8.1875 C19.96100894 18.41598966 31.55014265 23.59831071 43 29 C37.72930016 30.75689995 32.68441569 27.30955211 27.88427734 24.97412109 C17.02727377 19.36134003 8.00854692 11.13577284 0 2 C0 1.34 0 0.68 0 0 Z " fill="#B8D4FE" transform="translate(227,328)"/>
<path d="M0 0 C2.475 0.495 2.475 0.495 5 1 C5.05800781 1.54269531 5.11601562 2.08539063 5.17578125 2.64453125 C6.36610821 6.04627133 8.67410518 8.20548289 11.1875 10.6875 C11.98510742 11.4765271 11.98510742 11.4765271 12.79882812 12.28149414 C23.13071862 22.16788936 36.57444872 30.55744487 51 32 C53.01416562 32.62256028 55.02015519 33.27566653 57 34 C56.505 34.99 56.505 34.99 56 36 C35.81103839 32.94659046 17.32684572 22.44562995 4 7 C2.46373446 4.71296062 1.23543709 2.47087418 0 0 Z " fill="#2079FF" transform="translate(223,326)"/>
<path d="M0 0 C6.10887603 0.70129559 11.89412965 2.16646601 17.8125 3.8125 C19.24239258 4.1847168 19.24239258 4.1847168 20.70117188 4.56445312 C21.61060547 4.81775391 22.52003906 5.07105469 23.45703125 5.33203125 C24.28178955 5.55608643 25.10654785 5.7801416 25.95629883 6.01098633 C28.49562845 7.23985078 29.02159612 8.40971493 30 11 C22.40309471 11.59583571 16.14104314 9.44252097 9 7 C8.14921875 6.73832031 7.2984375 6.47664063 6.421875 6.20703125 C4.25 5.5 4.25 5.5 1 4 C0.296875 1.90625 0.296875 1.90625 0 0 Z " fill="#0131A5" transform="translate(221,322)"/>
<path d="M0 0 C1.258125 0.268125 2.51625 0.53625 3.8125 0.8125 C12.15781763 2.49122525 20.5885551 3.70460294 29 5 C29 6.32 29 7.64 29 9 C22.560067 9.36128656 16.80301045 8.00226992 10.5625 6.5 C9.54478516 6.26152344 8.52707031 6.02304687 7.47851562 5.77734375 C4.98396632 5.19176879 2.49131359 4.59916458 0 4 C0 2.68 0 1.36 0 0 Z " fill="#0030A4" transform="translate(213,265)"/>
<path d="M0 0 C2.92858514 0.3166038 4.54798479 0.54048691 6.6484375 2.67578125 C8.35516402 5.61075893 8.36787671 7.55952064 8.3125 10.9375 C8.30863281 11.95714844 8.30476563 12.97679687 8.30078125 14.02734375 C7.99644886 17.03509637 7.26248479 19.26880782 6 22 C5.34 22 4.68 22 4 22 C3.89042969 21.10796875 3.78085937 20.2159375 3.66796875 19.296875 C3.43013672 17.54117187 3.43013672 17.54117187 3.1875 15.75 C2.96126953 14.00976562 2.96126953 14.00976562 2.73046875 12.234375 C1.99224114 8.96564524 1.05085046 7.55216946 -1 5 C-0.6875 2.25 -0.6875 2.25 0 0 Z " fill="#7DB2FF" transform="translate(327,303)"/>
<path d="M0 0 C0.66 0.33 1.32 0.66 2 1 C1.39865234 1.96873047 1.39865234 1.96873047 0.78515625 2.95703125 C-4.85673437 12.30900868 -9.43793682 22.08775347 -14 32 C-14.99 32 -15.98 32 -17 32 C-16.3805773 27.17601112 -14.3418579 23.37596408 -12.125 19.125 C-9.55613945 14.14724458 -7.14843159 9.17515283 -5 4 C-4.34 4 -3.68 4 -3 4 C-3 3.34 -3 2.68 -3 2 C-2.01 1.34 -1.02 0.68 0 0 Z " fill="#0E6EFE" transform="translate(238,205)"/>
<path d="M0 0 C0.33 0 0.66 0 1 0 C1.07476562 0.81082031 1.14953125 1.62164062 1.2265625 2.45703125 C2.22159188 10.83673948 4.54845071 16.87492549 9 24 C9.33 24.66 9.66 25.32 10 26 C8.19921875 25.82421875 8.19921875 25.82421875 6 25 C4.33203125 22.70703125 4.33203125 22.70703125 2.8125 19.8125 C2.30332031 18.87019531 1.79414063 17.92789062 1.26953125 16.95703125 C-1.29054197 10.99402993 -0.96742055 6.23448802 0 0 Z " fill="#0D6EFF" transform="translate(138,242)"/>
<path d="M0 0 C0.99 0.33 1.98 0.66 3 1 C1.72920407 4.8123878 0.39322116 5.027197 -3 7 C-3.639375 7.70125 -4.27875 8.4025 -4.9375 9.125 C-7.54682655 11.49711504 -9.54621412 11.68601947 -13 12 C-13 12.66 -13 13.32 -13 14 C-12.34 14.33 -11.68 14.66 -11 15 C-12.32 15 -13.64 15 -15 15 C-15 14.34 -15 13.68 -15 13 C-15.66 12.67 -16.32 12.34 -17 12 C-16.19175781 11.63648438 -15.38351562 11.27296875 -14.55078125 10.8984375 C-8.37487883 7.99300693 -3.82000477 5.73000716 0 0 Z " fill="#1170FE" transform="translate(321,347)"/>
<path d="M0 0 C0.66644531 0.37511719 1.33289063 0.75023437 2.01953125 1.13671875 C8.54760998 4.76140023 15.1589987 8.00954295 22 11 C17.99496402 12.33501199 15.7712173 10.90254755 12.125 9.25 C11.51269531 8.98445313 10.90039062 8.71890625 10.26953125 8.4453125 C6.69292689 6.86762407 3.17415272 5.29311413 0 3 C0 2.01 0 1.02 0 0 Z " fill="#AACDFF" transform="translate(248,346)"/>
<path d="M0 0 C2.475 0.495 2.475 0.495 5 1 C5.0825 1.556875 5.165 2.11375 5.25 2.6875 C6.22610013 5.69714206 7.95188814 7.62154752 10 10 C9.01 10 8.02 10 7 10 C5.17578125 8.06640625 5.17578125 8.06640625 3.3125 5.5625 C2.68988281 4.73878906 2.06726563 3.91507812 1.42578125 3.06640625 C0 1 0 1 0 0 Z " fill="#1F76FB" transform="translate(223,326)"/>
<path d="M0 0 C3.3 0.99 6.6 1.98 10 3 C9.67 3.66 9.34 4.32 9 5 C5.7 4.34 2.4 3.68 -1 3 C-0.67 2.01 -0.34 1.02 0 0 Z " fill="#60A0FF" transform="translate(270,357)"/>
<path d="M0 0 C0.53625 0.37125 1.0725 0.7425 1.625 1.125 C1.625 1.455 1.625 1.785 1.625 2.125 C-1.675 2.455 -4.975 2.785 -8.375 3.125 C-8.375 2.465 -8.375 1.805 -8.375 1.125 C-2.95961538 -1.09038462 -2.95961538 -1.09038462 0 0 Z " fill="#0E5CE0" transform="translate(316.375,357.875)"/>
<path d="M0 0 C-1.32 0.33 -2.64 0.66 -4 1 C-4 1.66 -4 2.32 -4 3 C-3.34 3.33 -2.68 3.66 -2 4 C-3.32 4 -4.64 4 -6 4 C-6 3.34 -6 2.68 -6 2 C-6.66 1.67 -7.32 1.34 -8 1 C-3.375 -1.125 -3.375 -1.125 0 0 Z " fill="#196FF5" transform="translate(312,358)"/>
</svg>
